<?xml version="1.0" standalone="no"?><!DOCTYPE svg PUBLIC "-//W3C//DTD SVG 1.1//EN" "http://www.w3.org/Graphics/SVG/1.1/DTD/svg11.dtd"><svg t="1779735691563" class="icon" viewBox="0 0 1024 1024" version="1.1" xmlns="http://www.w3.org/2000/svg" p-id="7277" width="64" height="64" xmlns:xlink="http://www.w3.org/1999/xlink"><path d="M0 0v289.770213h2.178723l0.431388-3.072 0.895455-6.165787 0.980425-6.202826 0.544681-3.115574 1.146009-6.209362 0.623115-3.067643 1.287625-6.076459 0.690656-2.989209 1.440136-5.969702 0.790876-3.002281 1.666724-6.052493 1.836664-6.16143 1.980459-6.239864 2.080681-6.222434 2.141685-6.072102 2.165651-5.797583 2.174366-5.451166 2.178724-5.109107 2.204868-4.910842 2.292017-4.936987 2.409668-5.006707 1.254944-2.477208 2.512069-4.84766 2.485923-4.612357 1.230979-2.209226L44.110434 163.404255l2.553464-4.357446 2.634076-4.357447 2.734298-4.357447 2.8672-4.357447 3.006639-4.357447 1.549072-2.178723 1.557787-2.178724 1.568681-2.178723 1.592647-2.178723 1.618791-2.178724 1.644937-2.178723 1.677617-2.178724 1.712476-2.178723 1.747336-2.178723 1.780017-2.178724 1.817056-2.178723 3.706008-4.357447 3.849804-4.357447 3.987064-4.357447 4.104715-4.35091 4.204936-4.337839 4.270298-4.292085 4.313873-4.1984 4.337838-4.034995 4.35091-3.834554L117.651064 75.884936l4.357447-3.509923 4.357446-3.39663 4.357447-3.268085 4.357447-3.150434L137.259574 61.004255l2.178724-1.562144 4.357447-3.072 4.357446-2.941277 4.357447-2.790945 4.357447-2.671115 4.357447-2.583965 4.357447-2.50989 4.409736-2.468493 4.581855-2.494639 4.821515-2.514247 2.509889-1.237514 5.019779-2.418383 2.47503-1.148188 4.934808-2.2528 2.505532-1.098076L201.989447 25.055319l5.457702-2.178723 5.795404-2.174366 6.074281-2.163473 6.235506-2.119897 6.261651-2.026213 6.16143-1.86063 3.000102-0.827915 5.947915-1.557787 2.952171-0.705906 2.980493-0.686298 6.019813-1.329022 6.130928-1.248408 6.205004-1.150366 6.21154-1.043609 6.185396-0.936851L289.770213 2.178723V0zM4.88034 751.975489l-0.936851-5.590604-0.90417-6.02417L2.178723 734.229787H0v289.770213h289.770213v-2.178723l-3.072-0.431388-6.165787-0.895455-6.202826-0.980425-3.115574-0.544681-6.209362-1.146009-3.067643-0.623115-6.076459-1.287625-2.989209-0.690656-5.969702-1.440136-3.002281-0.790876-6.052493-1.666724-6.16143-1.836664-6.239864-1.980459-6.222434-2.08286-6.072102-2.139506-5.797583-2.165651-5.451166-2.174366-5.109107-2.178724-4.910842-2.204868-4.936987-2.292017-5.006707-2.409668-2.477208-1.254944-4.84766-2.512069-4.612357-2.485923-2.209226-1.230979L163.404255 979.889566l-4.357446-2.553464-4.357447-2.634076-4.357447-2.734298-4.357447-2.869379-4.357447-3.006638-2.178723-1.546894-2.178724-1.557787-2.178723-1.568681-2.178723-1.592647-2.178724-1.618791-2.178723-1.647115-2.178724-1.677617-2.178723-1.710298-2.178723-1.747336-2.178724-1.780017-2.178723-1.817056-4.357447-3.706008-4.357447-3.849804-4.357447-3.987064-4.35091-4.104715-4.337839-4.204936-4.292085-4.270298-4.1984-4.313873-4.034995-4.337838-3.834554-4.35091L75.884936 906.348936l-3.509923-4.357447-3.39663-4.357446-3.268085-4.357447-3.150434-4.357447-1.55343-2.178723-1.562145-2.178724-3.072-4.357447-2.941276-4.357446-2.790945-4.357447-2.671115-4.357447-2.583966-4.357447-2.509889-4.357447-2.468494-4.409736-2.494638-4.581855-2.514247-4.821515-1.237515-2.509889-2.418383-5.019779-1.148187-2.47503-2.2528-4.934808-1.098077-2.505532-2.185259-5.148324-2.178724-5.457702-2.174365-5.795404-2.163473-6.074281-2.119898-6.237685-2.026212-6.259472-1.86063-6.16143-0.827915-3.000102-1.557787-5.947915-1.416171-5.926128-1.350808-6.159251-1.34863-6.784545-1.383489-7.712681zM734.229787 0v2.178723l3.072 0.431388 6.165787 0.895455 6.202826 0.980425 3.115574 0.544681 3.104681 0.573005 6.167966 1.191761 6.056851 1.272375 5.919592 1.339915 5.795404 1.420527 2.845413 0.760375 5.629821 1.575217 5.544851 1.692868 5.566638 1.819234 5.708256 1.965208 5.815013 2.085039 5.719149 2.152578 5.438093 2.176545 5.109107 2.178724 4.858553 2.178723L834.451064 30.502128l2.544749 1.137293 2.516425 1.154724 4.954417 2.348664 4.788834 2.44017 4.618894 2.522961 2.241906 1.291983 4.444596 2.597039 4.38577 2.62754L869.310638 49.287081l4.357447 2.745191 4.357447 2.8672 4.357447 3.006639 2.178723 1.549072 2.178724 1.557787 2.178723 1.568681 2.178723 1.592647 2.178724 1.618791 2.178723 1.644937 2.178724 1.677617 2.178723 1.712476 2.178723 1.747336 2.178724 1.780017 2.178723 1.817056 4.357447 3.706008 4.357447 3.849804 4.357447 3.987064 4.35091 4.104715 4.337839 4.204936 4.292085 4.270298 4.1984 4.313873 4.034995 4.337838 3.834554 4.35091L948.115064 117.651064l3.512102 4.357447 3.394451 4.357446 3.268085 4.357447 3.150434 4.357447 1.55343 2.178723 1.562145 2.178724 3.072 4.357447 1.468459 2.178723 2.869379 4.357447 1.372596 2.178723 2.703795 4.357447 2.644971 4.363983 2.61011 4.387949 2.575251 4.455489 2.518605 4.584034 2.44017 4.777941 2.359557 4.984919L993.497872 189.548936l2.178724 4.771404 2.178723 4.947881 2.178724 5.265975 1.089361 2.81491 1.082826 2.875915 2.135149 5.799762 2.034927 5.762723 1.89549 5.590605 1.75823 5.505634 1.642757 5.577532 0.762553 2.838876 1.466281 5.721328 0.688477 2.91731 0.673225 2.954349 1.315949 5.989311 1.241872 6.124392 1.154724 6.205004 1.04143 6.21154 0.936851 6.185396L1021.821277 289.770213h2.178723V0zM1024 1024V734.229787h-2.178723l-0.431388 3.072-0.895455 6.165787-0.980425 6.202826-0.544681 3.115574-0.573005 3.104681-1.191761 6.167966-1.272375 6.056851-1.339915 5.919592-1.418349 5.795404-0.762553 2.845413-1.575217 5.629821-1.690689 5.544851-1.821413 5.566638-1.965208 5.708256-2.085039 5.815013-2.152578 5.719149-2.176545 5.438093-2.178724 5.109107-2.204868 4.910842-2.292017 4.936987-2.409668 5.006707-1.254944 2.477208-2.512069 4.84766-2.485923 4.612357-1.230979 2.209226-2.485923 4.387949-2.553464 4.357446-2.634076 4.357447-2.734298 4.357447-2.869379 4.357447-3.006638 4.357447-1.546894 2.178723-1.557787 2.178724-1.568681 2.178723-1.592647 2.178723-1.618791 2.178724-1.647115 2.178723-1.677617 2.178724-1.710298 2.178723-1.747336 2.178723-1.780017 2.178724-1.817056 2.178723-3.706008 4.357447-3.849804 4.357447-3.987064 4.357447-4.104715 4.35091-4.204936 4.337839-4.270298 4.292085-4.313873 4.1984-4.337838 4.034995-4.35091 3.834554L906.348936 948.115064l-4.357447 3.512102-4.357446 3.394451-4.357447 3.268085-4.357447 3.150434-2.178723 1.55343-2.178724 1.562145-4.357447 3.072-4.357446 2.941276-4.357447 2.790945-4.357447 2.671115-4.357447 2.583966-4.357447 2.509889-4.409736 2.468494-4.581855 2.494638-4.821515 2.514247-2.509889 1.237515-5.019779 2.418383-2.47503 1.148187-4.934808 2.2528-2.505532 1.098077-5.148324 2.185259-5.457702 2.178724-5.795404 2.174365-6.074281 2.163473-6.237685 2.119898-6.259472 2.026212-6.16143 1.86063-3.000102 0.827915-5.947915 1.557787-2.952171 0.705907-2.980493 0.686298-6.017634 1.329021-6.133107 1.248408-6.205004 1.150366-6.21154 1.043609-6.183217 0.936851L734.229787 1021.821277v2.178723z" fill="#FFFFFF" p-id="7278"></path><path d="M33.892221 768.294128l0.318094-3.361771 0.352953-3.25937 0.766911-6.353157 0.882383-6.085175 0.984783-5.908698 1.102434-5.769259 0.618757-2.832341 1.302877-5.612391 0.727693-2.7648 1.529464-5.49474 0.845345-2.729941 1.777838-5.466417 1.930349-5.468596 2.054536-5.422842 2.135149-5.272511 2.178724-5.032851 2.226655-4.782298 2.292017-4.581855 1.19394-2.231013 1.226622-2.213583 1.257123-2.20051 1.287626-2.196154 1.322485-2.187438 1.355166-2.187438 1.390025-2.183081 1.424885-2.178724 1.459745-2.18308 1.494604-2.178724 1.533822-2.178723 3.137361-4.357447 3.289873-4.357447 3.455455-4.357447 3.631932-4.353089 3.808408-4.337838 1.989175-2.146043 2.024034-2.122076 4.109072-4.180971 2.109004-2.010961 4.248511-3.921702 4.305158-3.716903 4.33348-3.522995 2.174366-1.679796 4.350911-3.289872 2.178723-1.568681 2.178724-1.536 4.357447-2.991388 2.178723-1.422706 4.357447-2.773515 4.361804-2.636255 4.379234-2.514247 4.424987-2.403132 4.538281-2.313804 2.37263-1.124221 4.889055-2.228834 2.592681-1.091541 5.296477-2.156936 5.457702-2.074145 5.486025-1.9456 5.464239-1.786553 5.472953-1.623149 5.540493-1.466281 5.671218-1.315949 5.895625-1.169974 6.231149-1.039251 6.592817-0.925958 6.876051-0.823557 7.041634-0.688477 7.161464-0.448817 3.610145-0.05011 3.594893 0.043574 7.111353 0.261447 3.440205 0.274519 3.355234 0.326809 6.540527 0.727693 6.220256 0.864953 5.958808 0.984783 5.780153 1.100256 2.832341 0.618757 5.61457 1.302877 2.7648 0.727693 5.49474 1.529464 2.729941 0.845345 5.464238 1.77566 5.468596 1.932527 5.425021 2.054536 5.272511 2.135149 5.032851 2.178724 4.782298 2.226655 4.581855 2.292017 2.231013 1.19394 2.213583 1.226622 2.20051 1.257123 2.196154 1.287626 2.187438 1.322485 2.18526 1.355166 2.18308 1.390025 2.183081 1.424885 2.178724 1.459745 2.180902 1.494604 2.178723 1.533822 2.178724 1.56868 4.357446 3.213617 4.357447 3.372664 4.357447 3.542605 4.353089 3.721259 4.337839 3.893379 2.146042 2.024034 4.246332 4.109072 2.056715 2.109004 2.008783 2.124256 1.960851 2.139506 3.808409 4.296443 1.799625 2.165651 3.501209 4.337838 1.655829 2.174366 3.22669 4.353089 1.529464 2.178724 2.978315 4.357447 2.810553 4.357446 2.649327 4.357447 2.498996 4.363983 1.185226 2.196153 2.326876 4.422809 2.2528 4.516494 1.102434 2.339948 2.191796 4.786656 2.154757 5.006706 1.047966 2.610111 1.028358 2.653685 2.000068 5.39234 1.880238 5.542673 1.747336 5.655966 1.614434 5.740936 1.48589 5.804119 1.344272 5.867302 1.189583 5.95663 1.028358 6.115676 0.88674 6.377124 0.749481 6.708289 0.546859 6.993702 0.261447 7.150571-0.039217 3.577463-0.122008 3.544783-0.196085 3.496851-0.252732 3.438026-0.605685 6.743149-0.76909 6.462094-0.444459 3.093787-0.947745 6.078638-1.078468 5.915234-1.241872 5.847694-1.431422 5.858587-1.636221 5.899983-1.82577 5.893447-0.989141 2.891166-2.026212 5.677753-2.119898 5.459881-1.098077 2.634076-1.119864 2.599217-1.141651 2.570894-1.167796 2.540391-2.385702 5.013243-2.479387 4.865089-1.281089 2.353022-1.298519 2.313804-1.320307 2.283302-1.344272 2.254979-1.370417 2.23537-1.396562 2.220119-1.431421 2.204868-1.461924 2.200511-1.50114 2.189617-1.538179 2.189617-1.579574 2.183081-3.246298 4.366161-3.420596 4.357447-3.610144 4.357447-3.795337 4.353089-3.965276 4.337839-2.054536 2.146042-4.161362 4.246332-2.124255 2.056715-2.139507 2.008783-4.296442 3.917345-4.331302 3.70383-4.344375 3.496851-2.178723 1.653651-4.355268 3.22451-4.359626 3.065464-4.379234 2.921668-4.43806 2.797481-4.566604 2.699438-2.374808 1.309413-4.834588 2.581787-4.98274 2.488102-2.538213 1.189583-5.111285 2.326877-5.191898 2.222298-2.647149 1.063217-2.679829 1.034894-5.425022 2.010961-5.551387 1.882417-5.658145 1.747336-5.740936 1.614435-5.804119 1.485889-5.867302 1.344272-5.95663 1.189583-6.115676 1.028358-6.377124 0.888919-6.708289 0.747302-6.993702 0.546859-7.150571 0.261447-3.577463-0.039217-3.544783-0.122008-3.49903-0.196085-3.438026-0.25709-6.751864-0.618757-6.486059-0.80177-6.235506-0.95646-6.048137-1.102434-2.967421-0.627472-2.947813-0.662332-5.865123-1.394383-2.897702-0.766911-5.758366-1.60354-2.832341-0.869311-5.599319-1.80834-5.464238-1.930349-5.294298-2.034928-5.10257-2.106825-4.895592-2.148222-4.703863-2.170008-4.551354-2.174366-4.457668-2.178724L141.617021 962.995745h-4.357447v2.178723l2.178724 2.178723 2.178723 2.178724 2.178724 1.453208L148.153191 973.889362l2.178724 1.298519 4.357447 2.61011L159.046809 980.425532l2.178723 1.202655 4.357447 2.435813 4.357447 2.509889L174.297872 989.140426l4.357447 2.178723 4.357447 2.178723 2.546928 1.089362 5.037208 2.178723 4.902128 2.178724 4.767047 2.178723L202.621277 1002.212766l6.53617 2.178723 6.53617 2.178724 6.53617 2.178723 6.53617 2.178724 6.536171 2.178723 6.53617 2.178723 5.566638 1.183047 5.592783 1.230979 5.627643 1.285447L261.446809 1019.642553l3.270263 0.544681 6.536171 1.089362L274.519149 1021.821277l6.115677 0.849702 6.093889 0.880204L289.770213 1024h444.459574l3.041498-0.448817 6.093889-0.878026L749.480851 1021.821277l3.265906-0.544681 6.536171-1.089362L762.553191 1019.642553l4.357447-2.178723 2.178724-5.143966 2.178723-5.085141 2.178724-5.021957 1.089361-2.723404 2.178724-5.446809 1.089361-2.723404 1.089362-2.723404 2.178723-5.446809 1.089362-2.723404 2.178724-6.53617 2.178723-6.536171 2.178723-6.53617 2.178724-6.53617 2.178723-6.53617 2.178724-6.53617 0.864953-3.048034 1.738621-6.098247L799.591489 925.957447l1.453209-5.810656L801.770213 917.242553l1.183047-5.566638 1.230978-5.592783 1.285447-5.627643L806.12766 897.634043l0.54468-2.723405 1.089362-5.446808 0.544681-2.723404 0.544681-3.270264 1.089362-6.536171L810.485106 873.668085l0.544681-3.270264 1.089362-6.53617L812.66383 860.595745l0.849702-7.013311 0.880204-6.954485L814.842553 843.165957l0.483677-7.74754 0.588255-7.538383 0.718979-7.276936L817.021277 817.021277v-76.25532l-0.387813-3.579642-0.718979-7.276936-0.588255-7.538383L814.842553 714.621277l-0.448817-3.041498-0.878025-6.09389L812.66383 699.370213l-0.448817-3.041498-0.878026-6.093889L810.485106 684.119149l-0.551217-2.836698-1.102434-5.762723-1.089361-5.99149-1.07629-6.218076L806.12766 660.153191l-0.725515-2.904238L803.948936 651.438298l-0.725515-2.904238L801.770213 642.723404l-0.725515-2.904238L799.591489 634.008511l-0.725515-2.904239L797.412766 625.293617l-0.880204-3.05457-1.747336-6.100426L793.055319 610.042553l-2.178723-6.53617-2.178724-6.53617-2.178723-6.53617-2.178723-6.536171-1.089362-2.736476-2.178724-5.499098-2.178723-5.590604-2.178723-5.714792-2.178724-5.838979L773.446809 555.574468l-2.178724-4.48817-2.178723-4.588392-2.178724-4.77794-2.178723-4.987098-2.178724-5.124357-2.178723-4.357447-2.178723-4.357447-2.178724-4.357447-2.529498-4.357447-2.477208-4.357446-2.39006-4.357447-2.309446-4.357447-2.250622-4.357447-1.115506-2.178723-1.31377-2.178724-2.618826-4.357446-2.603574-4.357447-1.313771-2.178724-2.618825-4.357446-2.603575-4.357447-2.904238-4.357447-1.453208-2.178723-2.904239-4.357447-1.453208-2.178724-2.904238-4.357447-1.453209-2.178723-3.1744-4.357447-3.126468-4.357447-3.072-4.357446-1.520749-2.178724-1.634043-2.178723-3.268085-4.357447-1.634042-2.178723-3.507745-4.357447-3.477242-4.357447-1.729907-2.178723-1.856272-2.178724-3.673328-4.357447-3.588357-4.357446-1.77566-2.178724-2.113362-2.178723-4.176612-4.357447-4.030639-4.357447-3.834553-4.357447-3.660255-4.357446-1.79309-2.178724-2.178723-2.178723-2.178723-2.178724-2.178724-2.178723-2.178723-2.178723-2.178724-2.178724-2.178723-2.178723-2.178723-2.178724-2.178724-2.178723-2.178723-2.178723-4.357447-3.70383-4.357447-3.790979-4.357447-3.92606-4.357446-4.052425-4.357447-4.135217-4.357447-3.584-4.357447-3.631932-4.357447-3.677685-2.178723-1.734264-4.357447-3.4816-4.357447-3.49903-4.357446-3.268085-4.357447-3.268085-2.178724-1.525106-4.357446-3.072-4.357447-3.126468-4.357447-3.170043-2.178723-1.453209-4.357447-2.904238-2.178724-1.453208-4.357447-2.904239-2.178723-1.453208-4.357447-2.904238-2.178723-1.29852-4.357447-2.61011-4.357447-2.627541-2.178723-1.202655-4.357447-2.435813-4.357447-2.509889-4.357447-2.566536-4.357446-2.178724-4.357447-2.178723-4.357447-2.178723-4.357447-2.178724-4.357447-2.178723-4.357446-2.178724-4.357447-2.178723-4.357447-2.178723-4.357447-2.178724-4.357447-2.178723-4.357446-2.178724-4.357447-2.178723-2.723405-1.089362-5.446808-2.178723-2.723404-1.089362-2.723405-1.089362-5.446808-2.178723-2.723404-1.089362-3.202724-1.089361-6.355336-2.178724-6.209362-2.178723-6.013276-2.178724-5.838979-2.178723L420.493617 233.123404l-3.048034-0.864953-6.098247-1.738621L405.242553 228.765957l-3.048034-0.864953-6.098247-1.738621L389.991489 224.408511l-5.810655-1.453209L381.276596 222.229787l-5.566639-1.183047-5.592783-1.230978-5.627642-1.285447L361.668085 217.87234l-3.15697-0.535966-6.218077-1.080646-5.991489-1.089362-5.762723-1.098077L337.702128 213.514894l-6.115677-0.849703-6.093889-0.880204L322.451064 211.33617l-7.013311-0.849702-6.954485-0.880204L305.021277 209.157447l-3.607966-0.161226-7.178894-0.385634-7.087387-0.544681-6.982809-0.701549L276.697872 206.978723H213.514894l-3.466349 0.385634-6.982809 0.701549-7.087387 0.544681-7.178894 0.385634L185.191489 209.157447l-3.459812 0.448817-6.956664 0.878025L167.761702 211.33617l-3.041498 0.448817-6.093889 0.878026L152.510638 213.514894l-2.836698 0.553395-5.762723 1.098077-5.991489 1.089362-6.218077 1.080646L128.544681 217.87234l-5.642894 1.311592-5.612391 1.261481-5.575353 1.198298L108.93617 222.229787l-2.904238 0.725515L100.221277 224.408511l-3.054571 0.880204-6.100425 1.747336L84.970213 228.765957l-6.53617 2.178724-6.536171 2.178723-6.53617 2.178724-6.53617 2.178723-6.53617 2.178723-6.536171 2.178724-6.53617 2.178723-5.44463 2.178724L28.323404 248.374468l-5.002349 2.178723-5.082961 2.178724L13.07234 254.910638l-4.357446 2.178724-2.178724 2.178723-2.178723 2.178724-0.544681 3.270263-1.089362 6.536171L2.178723 274.519149l-0.849702 6.115677-0.880204 6.093889L0 289.770213v444.459574l0.448817 3.041498 0.878026 6.093889L2.178723 749.480851l0.544681 3.265906 1.089362 6.536171L4.357447 762.553191l1.311591 5.642894 1.261481 5.61457 1.198298 5.573175L8.714894 782.161702l2.178723 6.53617 2.178723 6.536171 2.178724 6.53617 2.178723 6.53617 2.178724 6.53617 2.178723 6.53617 2.178723 4.679898 2.178724 4.808443 2.178723 4.993634L30.502128 840.987234l2.178723 4.357447 2.178723 4.357447 2.553464 4.357446 2.505532 4.357447 2.446707 4.357447 1.209191 2.178723 1.31377 2.178724 2.618826 4.357447L50.110638 875.846809l2.904239 4.357446 1.453208 2.178724 2.178724 2.178723 2.178723 2.178724h2.178723v-4.357447l-1.089361-2.200511-2.178724-4.431523-2.178723-4.538281-1.089362-2.37263-2.178723-4.889055-1.080647-2.592681-2.141685-5.296477-2.069787-5.457702-1.943422-5.486025-1.786553-5.46206-1.625328-5.468596-1.464102-5.520885-1.315949-5.588425-1.169974-5.682111-0.520715-2.904238-0.984783-5.899983-0.888919-6.124392-0.795234-6.427234-0.636187-6.725719-0.35949-6.926162 0.006536-7.050349z" fill="#FF894C" p-id="7279"></path><path d="M135.431626 963.910809l5.006706 1.851914 4.865089 1.925992 4.697328 2.008783 4.549174 2.082859 4.451132 2.132971L163.404255 976.068085l2.723405 1.089362 5.446808 2.178723 2.723404 1.089362 6.536171 2.178723 5.810655 1.453209L189.548936 984.782979l5.810655 1.453208L198.26383 986.961702l5.810655 1.453209L206.978723 989.140426l6.115677 0.849702 6.093889 0.880204L222.229787 991.319149h45.753192l3.041498-0.448817 6.093889-0.878026L283.234043 989.140426l2.904238-0.725515L291.948936 986.961702l2.904238-0.725515L300.66383 984.782979l2.904238-0.725515L309.378723 982.604255l6.536171-2.178723 5.444629-2.178723 5.448988-2.178724 5.002349-2.178723 5.082961-2.178724 5.165753-2.178723 4.357447-2.178724 2.178724-1.31377 4.357446-2.618825 4.357447-2.603575 4.357447-2.904238 2.178724-1.453209 4.357446-2.904238 2.178724-1.453208 2.178723-1.634043 4.357447-3.268085 2.178723-1.634043 2.178724-2.178723 2.178723-2.178723 2.178724-2.178724 2.178723-2.178723 2.178723-2.178724 2.178724-2.178723 2.178723-2.178723 2.178724-2.178724 2.178723-2.178723 2.178723-2.178724 2.178724-2.178723 2.178723-2.178723 2.178724-2.178724 2.178723-2.178723 2.178723-2.178724 3.268086-4.357446 3.268085-4.357447 1.453208-2.178724 2.904238-4.357446 1.453209-2.178724 2.904238-4.357447 1.298519-2.178723 2.610111-4.357447 2.62754-4.357447 2.178724-4.357446 2.178723-4.357447 2.178724-5.143966 2.178723-5.085141 2.178723-5.021957 2.178724-6.53617 2.178723-6.536171 2.178724-6.53617 1.453208-5.810655L453.174468 827.914894l0.544681-2.723405 1.089362-5.446808 0.54468-2.723404 0.849703-6.115677 0.880204-6.093889L457.531915 801.770213v-45.753192l-0.448817-3.041498-0.878026-6.093889L455.353191 740.765957l-0.725514-2.904238L453.174468 732.051064l-0.725515-2.904238L450.995745 723.33617l-0.725515-2.904238L448.817021 714.621277l-2.178723-6.536171-2.178724-5.444629-2.178723-5.448988-2.178723-4.357446-2.178724-4.357447-2.178723-4.357447-2.178724-4.357447-2.178723-4.357447-2.178723-4.357446-2.178724-4.357447-2.904238-4.357447-1.453209-2.178724-2.904238-4.357446-1.453208-2.178724-1.634043-2.178723-3.268085-4.357447-1.634043-2.178723-2.178723-2.178724-2.178723-2.178723-2.178724-2.178724-2.178723-2.178723-2.178724-2.178723-2.178723-2.178724-2.178723-2.178723-2.178724-2.178724-2.178723-2.178723-2.178724-2.178723-2.178723-2.178724-2.178723-2.178723-2.178724-2.178724-2.178723-2.178723-4.357447-3.268085-4.357447-3.268085-4.357447-3.268085-4.357446-3.268085-2.178724-1.29852-4.357447-2.61011-4.357447-2.627541-4.357446-2.178723-4.357447-2.178723-4.357447-2.178724-4.357447-2.178723-4.357447-2.178724-4.357446-2.178723-2.945634-1.089362-5.849873-2.178723-5.769259-2.178724L309.378723 575.182979l-5.810655-1.453209L300.66383 573.004255l-5.810656-1.453208L291.948936 570.825532l-2.723404-0.544681-5.446809-1.089362L281.055319 568.646809l-6.115676-0.849703-6.09389-0.880204L265.804255 566.468085h-39.217021l-3.459813 0.448817-6.956664 0.878026L209.157447 568.646809l-2.723404 0.54468-5.446809 1.089362L198.26383 570.825532l-2.904239 0.725515L189.548936 573.004255l-2.904238 0.725515L180.834043 575.182979l-2.865022 1.089361-5.769259 2.178724-5.849873 2.178723L163.404255 581.719149l-4.357446 2.178723-4.357447 2.178724-4.357447 2.178723-4.357447 2.178724-4.357447 2.178723-4.357447 2.178723-2.178723 1.313771-4.357447 2.618825L126.365957 601.32766l-2.178723 1.634042-4.357447 3.268085-2.178723 1.634043-2.178724 1.634042-4.357446 3.268085-2.178724 1.634043-2.178723 2.178723-2.178724 2.178724-2.178723 2.178723-2.178723 2.178724-2.178724 2.178723-2.178723 2.178723-2.178724 2.178724-2.178723 2.178723-2.178723 2.178724-2.178724 2.178723-2.178723 2.178723-2.178724 2.178724-2.178723 2.178723-3.268085 4.357447-3.268085 4.357447-3.268085 4.357447-3.268085 4.357446-1.29852 2.178724-2.61011 4.357447L61.004255 671.046809l-2.178723 4.357446-2.178723 4.357447-2.178724 4.357447-2.178723 4.357447-2.178724 4.357447-2.178723 4.357446-1.089362 2.945634-2.178723 5.852051-2.178724 5.767081L41.395745 714.621277l-1.453209 5.810655L39.217021 723.33617l-1.453208 5.810656L37.038298 732.051064l-0.544681 2.723404-1.089362 5.446809L34.859574 742.944681l-0.849702 6.115676-0.880204 6.09389L32.680851 758.195745v41.395744l0.448817 3.041498 0.878026 6.09389L34.859574 814.842553l0.544681 2.723404 1.089362 5.446809L37.038298 825.73617l0.725515 2.904239L39.217021 834.451064l0.725515 2.904238L41.395745 843.165957l1.089361 2.865022 2.178724 5.767081 2.178723 5.852051L47.931915 860.595745l1.085004 2.187438 2.161294 4.390128 2.130791 4.455489 2.06543 4.581855 1.969566 4.775762 1.864987 4.987098L61.004255 891.097872l2.904239 4.357447 1.453208 2.178724 3.507745 4.357446 3.477242 4.357447 1.729907 2.178724 2.178723 2.178723 2.178724 2.178723 2.178723 2.178724 2.178723 2.178723 2.178724 2.178724 2.178723 2.178723 2.178724 2.178723 2.178723 2.178724 2.178723 2.178723 2.178724 2.178724 2.178723 2.178723 2.178724 2.178723 2.178723 2.178724 2.178723 2.178723 2.178724 2.178724 2.178723 2.178723 2.178724 2.178723 2.178723 2.178724 2.178723 2.178723 2.178724 1.734264 4.357447 3.4816L126.365957 958.638298l2.178724 1.453208L132.902128 962.995745z" fill="#FF2900" p-id="7280"></path><path d="M19.608511 254.910638l2.522961-1.089361 2.549107-1.089362 5.178825-2.178724 2.67983-1.089361 5.483847-2.178724 5.723506-2.178723 5.965345-2.178723 6.172323-2.174366 6.320477-2.161294 6.390196-2.130791 6.377123-2.06543 6.311762-1.969566 6.222434-1.862809 6.128749-1.771302 6.028527-1.684153 5.908698-1.566502 5.775796-1.41617 2.834519-0.638366 5.756187-1.28109 5.987132-1.285447 6.191932-1.26148 6.313941-1.198298L141.617021 217.87234l2.78223-0.538144 5.623285-1.052324 5.767081-0.991319 2.967421-0.457532 6.087353-0.897634 6.481703-0.878025 3.427132-0.435745 6.915268-0.856238 6.971915-0.810485 7.000238-0.705907 7.087387-0.544681 7.178894-0.385634L213.514894 209.157447l7.187608-0.732051 7.348834-0.605685 7.56017-0.403064 7.706145-0.176477 7.710502 0.047932 7.586315 0.278877 7.374979 0.512 7.168 0.695012L276.697872 209.157447l3.607966 0.161225 7.178894 0.385634 7.087387 0.544681 3.490315 0.350775 6.984987 0.753838 3.492494 0.416136 6.921804 0.851881 6.677787 0.869311 6.300868 0.878025 5.982775 0.9216 5.767081 0.991319 5.621106 1.052324L348.595745 217.87234l6.346621 1.183047 6.252936 1.230979 3.072 0.642723 3.000102 0.638366 5.878196 1.274554 5.740936 1.307234 5.777975 1.41617 5.895625 1.55343 5.976238 1.658008 5.976239 1.708119 5.873838 1.725549 5.679932 1.742979 2.732119 0.878025 5.536136 1.814877 2.932562 0.986962 3.017532 1.024 6.122213 2.104647 6.159251 2.165651 2.997923 1.089361 5.893447 2.178724 2.84977 1.089361 5.612392 2.178724 2.723404 1.089361 5.364017 2.178724 2.592681 1.089362 5.093855 2.178723 2.448885 1.089362 4.806264 2.178723 2.32034 1.089362 4.57532 2.178723 4.468561 2.178724 4.409736 2.178723 4.374877 2.183081L505.46383 271.272851l4.357447 2.226655 4.359625 2.292017 4.357447 2.387881 4.357447 2.49246 4.357447 2.562179 2.178723 1.202655 4.357447 2.435813 2.178723 1.254944 4.357447 2.542571 4.357447 2.605753 4.357447 2.6624 4.357446 2.738655 4.357447 2.827983 4.357447 2.926026 4.357447 3.024068 4.357447 3.115574 4.357446 3.165685 4.357447 3.065464 4.357447 3.117753 4.357447 3.213617 2.178723 1.660187 2.178724 1.684154 4.357446 3.409702 4.357447 3.490315 4.357447 3.557855 4.357447 3.625396 2.178723 1.838842 2.178724 1.838843 4.357447 3.70383 4.357446 3.790978 4.357447 3.92606 4.357447 4.052425 4.357447 4.135218 2.156936 1.851914 4.289906 3.751762 4.196222 3.862877 4.034995 4.006672 3.834554 4.139575 3.660255 4.226723 1.793089 2.126434 2.113362 2.178723 4.176613 4.357447 4.030638 4.357447 3.834553 4.357447 3.660255 4.357447 1.79309 2.178723 1.856272 2.178723 3.673328 4.357447 3.588357 4.357447 3.520817 4.357447 3.461992 4.357447 3.377021 4.357446 3.263728 4.357447 3.159149 4.357447 3.078536 4.357447 1.522928 2.178723 1.579574 2.178724 3.133004 4.357446 3.072 4.357447 2.982673 4.357447 2.886808 4.357447 2.788766 4.357447 2.701617 4.357447 1.320306 2.178723 1.318128 2.178723 1.31377 2.178724 2.614468 4.357447 2.592681 4.357446 2.546928 4.357447 2.477208 4.357447 2.392239 4.357447 2.309447 4.357447 2.250621 4.357446 1.115506 2.178724 1.272375 2.274587 2.516425 4.616715 2.44017 4.784477 2.359558 4.984919L762.553191 538.144681l1.089362 2.248442 2.178724 4.560068 2.178723 4.749618 2.178723 5.041565 2.178724 5.37709 2.178723 5.64943 1.089362 2.875915 1.089362 2.743012 2.178723 5.518707 2.174366 5.621106 2.161294 5.773617 2.130791 5.941379 2.06543 6.078638 1.969566 6.144 0.932493 3.076358 1.825771 6.137463 0.875846 3.050213 0.864954 3.034962 1.692868 6.043779 1.627506 5.982774 1.557787 5.930485 1.494605 5.899983 1.431421 5.926128 1.361702 6.017634 1.276732 6.165787 1.204834 6.309583L806.12766 673.225532l0.538144 2.78223 1.052324 5.623285 0.991319 5.767081 0.915064 5.932663L810.485106 699.370213l0.88892 6.115676 0.864953 6.279081 0.812664 6.63857 0.718978 7.102639 0.588256 7.512238L814.842553 740.765957l0.383456 3.584 0.697191 7.283473 0.522894 7.547098 0.318093 7.799829 0.141617 7.930554v7.965412l-0.141617 7.930554-0.318093 7.799829-0.522894 7.547098-0.697191 7.283473L814.842553 817.021277l-0.483676 7.74754-0.294128 3.769192-0.653617 7.40548-0.771268 7.174537-0.849702 7.01331-0.919422 6.87823-0.492391 3.370485-1.015285 6.671251-1.05886 6.529634-1.082825 6.357515-1.111149 6.152715-1.16126 5.9392-1.230979 5.780153-1.289804 5.699541L801.770213 906.348936l-0.623115 2.821447-1.294162 5.679932-1.41617 5.782332-1.564323 5.908698-1.688511 6.030706-1.786553 6.137464-1.873702 6.226791-1.965209 6.303047-1.024 3.167864-1.043608 3.159149-2.109005 6.283438-1.07411 3.082894-2.156936 6.074281-2.170009 5.884732-2.178723 5.701719-2.176545 5.536136-2.178723 5.394519-2.178724 5.252902-2.178723 5.12-2.178724 5.030673v6.53617h4.357447l2.723404-0.544681 5.446809-1.089362L782.161702 1015.285106l6.53617-2.178723 6.536171-2.178723 6.53617-2.178724 6.53617-2.178723 6.53617-2.178724 6.53617-2.178723 4.679898-2.178723 4.808443-2.178724 4.993634-2.178723 5.126536-2.178724 4.357447-2.178723 4.357447-2.178723 4.357446-2.553464 4.357447-2.505532 4.357447-2.446707 2.178723-1.209191 2.178724-1.31377 4.357447-2.618826 4.357447-2.603574 4.357446-2.904239 2.178724-1.453208 4.357447-3.1744 4.357446-3.126468 4.357447-3.072 2.178724-1.520749 4.357446-3.507745 4.357447-3.477242 2.178724-1.729907 2.178723-2.178723 2.178723-2.178724 2.178724-2.178723 2.178723-2.178723 2.178724-2.178724 2.178723-2.178723 2.178723-2.178724 2.178724-2.178723 2.178723-2.178723 2.178724-2.178724 2.178723-2.178723 2.178723-2.178724 2.178724-2.178723 2.178723-2.178723 2.178724-2.178724 2.178723-2.178723 2.178723-2.178724 2.178724-2.178723 2.178723-2.178723 1.734264-2.178724 3.4816-4.357447 3.49903-4.357446 1.525106-2.178724 3.072-4.357447 3.126468-4.357446 3.170043-4.357447 1.453208-2.178724 2.904239-4.357446 1.298519-2.178724 2.61011-4.357447 2.627541-4.357447 1.202655-2.178723 2.435813-4.357447 2.509889-4.357447 2.566537-4.357446 2.178723-4.357447 2.178723-4.357447 1.089362-2.546928 2.178723-5.037208 2.178724-4.902128 2.178723-4.767047 1.089362-2.3552 1.089362-3.106859 2.178723-6.150536 2.178723-5.99149 2.178724-5.834621 1.089362-2.882451 0.864953-3.048034 1.738621-6.098247L1015.285106 782.161702l1.183047-5.566638 1.230979-5.592783 1.285447-5.627643L1019.642553 762.553191l0.544681-3.270263 1.089362-6.536171L1021.821277 749.480851l0.849702-6.115677 0.880204-6.093889L1024 734.229787V289.770213l-0.448817-3.041498-0.878026-6.093889L1021.821277 274.519149l-0.544681-3.265906-1.089362-6.536171L1019.642553 261.446809l-1.311591-5.642894-1.261481-5.612392-1.198298-5.575353L1015.285106 241.838298l-0.880204-3.05457-1.747336-6.100426L1010.92766 226.587234l-2.178724-5.799762-2.178723-5.913055-2.178724-6.072102L1002.212766 202.621277l-2.178723-4.679898-2.178724-4.808443-2.178723-4.993634L993.497872 183.012766l-2.178723-4.357447-2.178723-4.357447-2.178724-4.357446-1.31377-2.178724-2.618826-4.357447L980.425532 159.046809l-1.31377-2.178724-2.618826-4.357447L973.889362 148.153191l-2.904239-4.357446-1.453208-2.178724-3.1744-4.357447-3.126468-4.357446-3.072-4.357447-1.520749-2.178724-3.507745-4.357446-3.477242-4.357447-1.729907-2.178724-2.178723-2.178723-2.178724-2.178723-2.178723-2.178724-2.178723-2.178723-2.178724-2.178724-2.178723-2.178723-2.178724-2.178723-2.178723-2.178724-2.178723-2.178723-2.178724-2.178724-2.178723-2.178723-2.178724-2.178723-2.178723-2.178724-2.178723-2.178723-2.178724-2.178724-2.178723-2.178723-2.178724-2.178723-2.178723-2.178724-2.178723-2.178723-2.178724-1.734264-4.357447-3.4816L897.634043 65.361702l-2.178724-1.525106-4.357447-3.072-4.357446-3.126468L882.382979 54.468085l-2.178724-1.453208L875.846809 50.110638l-2.178724-1.298519-4.357447-2.61011L864.953191 43.574468l-2.178723-1.298519-4.357447-2.610111L854.059574 37.038298l-4.357446-2.178724-4.357447-2.178723-4.357447-2.178723-2.546928-1.089362-5.037208-2.178723-4.902128-2.178724-4.767047-2.178723L821.378723 21.787234l-3.106859-1.089362-6.150536-2.178723-5.99149-2.178723-5.834621-2.178724L797.412766 13.07234l-3.048034-0.864953-6.098247-1.738621L782.161702 8.714894l-5.566638-1.183047-5.592783-1.230979-5.627643-1.285447L762.553191 4.357447l-3.270263-0.544681-6.536171-1.089362L749.480851 2.178723l-6.115677-0.849702-6.093889-0.880204L734.229787 0H289.770213l-3.041498 0.448817-6.093889 0.878026L274.519149 2.178723l-3.265906 0.544681-6.536171 1.089362L261.446809 4.357447l-5.642894 1.311591-5.612392 1.261481-5.575353 1.198298L241.838298 8.714894l-6.53617 2.178723-6.536171 2.178723-6.53617 2.178724-6.53617 2.178723-6.53617 2.178724-6.53617 2.178723-4.679898 2.178723-4.808443 2.178724-4.993634 2.178723L183.012766 30.502128l-4.357447 2.178723-4.357447 2.178723-4.357446 2.553464-4.357447 2.505532-4.357447 2.446707L159.046809 43.574468l-2.178724 1.31377-4.357447 2.618826L148.153191 50.110638l-4.357446 2.904239L141.617021 54.468085l-4.357447 3.172221-4.357446 3.128647-4.357447 3.072L126.365957 65.361702l-4.357446 3.507745-4.357447 3.477242L115.47234 74.076596l-2.178723 2.178723-2.178723 2.178724-2.178724 2.178723-2.178723 2.178723-2.178724 2.178724-2.178723 2.178723-2.178723 2.178724-2.178724 2.178723-2.178723 2.178723-2.178724 2.178724-2.178723 2.178723-2.178723 2.178724-2.178724 2.178723-2.178723 2.178723-2.178724 2.178724-2.178723 2.178723-2.178723 2.178724-2.178724 2.178723-2.178723 2.178723-1.734264 2.178724-3.4816 4.357447L65.361702 126.365957l-1.525106 2.178724-3.072 4.357447-3.126468 4.357446L54.468085 141.617021l-1.453208 2.178724L50.110638 148.153191l-1.298519 2.178724-2.61011 4.357447L43.574468 159.046809l-1.202655 2.178723-2.435813 4.357447-2.509889 4.357447L34.859574 174.297872l-2.178723 4.357447-2.178723 4.357447-1.089362 2.546928-2.178723 5.037208-2.178724 4.902128-2.178723 4.767047L21.787234 202.621277l-2.178723 6.53617-2.178724 6.53617-2.178723 6.53617-2.178724 6.53617-2.178723 6.536171-2.178723 6.53617-0.544681 2.723404-1.089362 5.446809L6.53617 252.731915v6.53617h2.178724l5.444629-2.178723z" fill="#FFD0A0" p-id="7281"></path></svg>
